<svg id="visual" viewBox="0 0 1250 600" width="1250" height="600" xmlns="http://www.w3.org/2000/svg" xmlns:xlink="http://www.w3.org/1999/xlink" version="1.1"><rect x="0" y="0" width="1250" height="600" fill="#fff"></rect><defs><linearGradient id="grad1_0" x1="52%" y1="100%" x2="100%" y2="0%"><stop offset="8.333333333333332%" stop-color="#6056ff" stop-opacity="1"></stop><stop offset="91.66666666666667%" stop-color="#6056ff" stop-opacity="1"></stop></linearGradient></defs><defs><linearGradient id="grad1_1" x1="52%" y1="100%" x2="100%" y2="0%"><stop offset="8.333333333333332%" stop-color="#6056ff" stop-opacity="1"></stop><stop offset="91.66666666666667%" stop-color="#ffffff" stop-opacity="1"></stop></linearGradient></defs><defs><linearGradient id="grad2_0" x1="0%" y1="100%" x2="48%" y2="0%"><stop offset="8.333333333333332%" stop-color="#6056ff" stop-opacity="1"></stop><stop offset="91.66666666666667%" stop-color="#6056ff" stop-opacity="1"></stop></linearGradient></defs><defs><linearGradient id="grad2_1" x1="0%" y1="100%" x2="48%" y2="0%"><stop offset="8.333333333333332%" stop-color="#ffffff" stop-opacity="1"></stop><stop offset="91.66666666666667%" stop-color="#6056ff" stop-opacity="1"></stop></linearGradient></defs><g transform="translate(1250, 600)"><path d="M-360 0C-355.9 -48.2 -351.7 -96.4 -332.6 -137.8C-313.5 -179.1 -279.4 -213.5 -244.7 -244.7C-209.9 -275.8 -174.4 -303.8 -133.6 -322.4C-92.7 -341.1 -46.3 -350.6 0 -360L0 0Z" fill="#bda8ff"></path><path d="M-180 0C-177.9 -24.1 -175.9 -48.2 -166.3 -68.9C-156.7 -89.5 -139.7 -106.7 -122.3 -122.3C-104.9 -137.9 -87.2 -151.9 -66.8 -161.2C-46.3 -170.6 -23.2 -175.3 0 -180L0 0Z" fill="#6056ff"></path></g></svg>