<svg id="visual" viewBox="0 0 1340 600" width="1340" height="600" xmlns="http://www.w3.org/2000/svg" xmlns:xlink="http://www.w3.org/1999/xlink" version="1.1"><rect x="0" y="0" width="1340" height="600" fill="#FFFFFF"></rect><defs><linearGradient id="grad1_0" x1="55.2%" y1="100%" x2="100%" y2="0%"><stop offset="5.333333333333332%" stop-color="#57bc90" stop-opacity="1"></stop><stop offset="94.66666666666666%" stop-color="#57bc90" stop-opacity="1"></stop></linearGradient></defs><defs><linearGradient id="grad1_1" x1="55.2%" y1="100%" x2="100%" y2="0%"><stop offset="5.333333333333332%" stop-color="#57bc90" stop-opacity="1"></stop><stop offset="94.66666666666666%" stop-color="#ffffff" stop-opacity="1"></stop></linearGradient></defs><defs><linearGradient id="grad2_0" x1="0%" y1="100%" x2="44.8%" y2="0%"><stop offset="5.333333333333332%" stop-color="#57bc90" stop-opacity="1"></stop><stop offset="94.66666666666666%" stop-color="#57bc90" stop-opacity="1"></stop></linearGradient></defs><defs><linearGradient id="grad2_1" x1="0%" y1="100%" x2="44.8%" y2="0%"><stop offset="5.333333333333332%" stop-color="#ffffff" stop-opacity="1"></stop><stop offset="94.66666666666666%" stop-color="#57bc90" stop-opacity="1"></stop></linearGradient></defs><g transform="translate(1340, 600)"><path d="M-330 0C-322.2 -59.2 -314.4 -118.4 -285.8 -165C-257.1 -211.6 -207.6 -245.7 -156.5 -271.1C-105.4 -296.5 -52.7 -313.2 0 -330L0 0Z" fill="#afdec6"></path><path d="M-165 0C-161.1 -29.6 -157.2 -59.2 -142.9 -82.5C-128.6 -105.8 -103.8 -122.8 -78.3 -135.5C-52.7 -148.2 -26.3 -156.6 0 -165L0 0Z" fill="#57bc90"></path></g><g transform="translate(0, 0)"><path d="M330 0C322.5 59.7 315 119.3 285.8 165C256.6 210.7 205.7 242.4 154.5 267.6C103.3 292.8 51.6 311.4 0 330L0 0Z" fill="#afdec6"></path><path d="M165 0C161.2 29.8 157.5 59.7 142.9 82.5C128.3 105.3 102.9 121.2 77.3 133.8C51.6 146.4 25.8 155.7 0 165L0 0Z" fill="#57bc90"></path></g></svg>