<?xml version="1.0" encoding="UTF-8"?>
<svg xmlns="http://www.w3.org/2000/svg" xmlns:xlink="http://www.w3.org/1999/xlink" width="1081px" height="1081px" viewBox="0 0 1081 1081" version="1.1">
<defs>
<clipPath id="clip1">
  <path d="M 0 458 L 357 458 L 357 766.207031 L 0 766.207031 Z M 0 458 "/>
</clipPath>
<clipPath id="clip2">
  <path d="M 144 567 L 442.851562 567 L 442.851562 766.207031 L 144 766.207031 Z M 144 567 "/>
</clipPath>
</defs>
<g id="surface1">
<rect x="0" y="0" width="1081" height="1081" style="fill:rgb(100%,100%,100%);fill-opacity:1;stroke:none;"/>
<path style=" stroke:none;fill-rule:nonzero;fill:rgb(27.843137%,23.921569%,100%);fill-opacity:1;" d="M 3.808594 -13.628906 L 426.21875 -13.628906 C 435.410156 -13.628906 442.851562 -7.480469 442.851562 0.0976562 L 442.851562 752.480469 C 442.851562 760.0625 435.410156 766.207031 426.21875 766.207031 L 3.808594 766.207031 C -5.378906 766.207031 -12.824219 760.0625 -12.824219 752.480469 L -12.824219 0.0976562 C -12.824219 -7.480469 -5.378906 -13.628906 3.808594 -13.628906 Z M 3.808594 -13.628906 "/>
<g clip-path="url(#clip1)" clip-rule="nonzero">
<path style=" stroke:none;fill-rule:evenodd;fill:rgb(37.647059%,33.72549%,100%);fill-opacity:1;" d="M -70.519531 732.023438 C -7.425781 854.816406 267.84375 926.863281 339.679688 827.332031 C 411.507812 727.796875 229.75 709.734375 165.5 606.878906 C 101.242188 504.023438 51.316406 439.828125 -41.519531 463.257812 C -134.363281 486.695312 -133.613281 609.230469 -70.519531 732.023438 Z M -70.519531 732.023438 "/>
</g>
<g clip-path="url(#clip2)" clip-rule="nonzero">
<path style=" stroke:none;fill-rule:evenodd;fill:rgb(96.862745%,49.803922%,54.901961%);fill-opacity:1;" d="M 374.824219 811.726562 C 475.734375 772.898438 529.222656 614.667969 444.46875 576.226562 C 359.707031 537.777344 349.015625 641.550781 264.761719 680.554688 C 180.503906 719.554688 128.15625 749.484375 149.933594 801.703125 C 171.710938 853.921875 273.914062 850.546875 374.824219 811.726562 Z M 374.824219 811.726562 "/>
</g>
<path style="fill:none;stroke-width:5;stroke-linecap:round;stroke-linejoin:bevel;stroke:rgb(100%,100%,100%);stroke-opacity:1;stroke-miterlimit:4;" d="M 165.30643 469.096508 L 175.911377 458.293351 M 209.461999 474.58202 L 196.954504 464.077607 M 187.559202 488.990023 L 180.651306 503.787815 " transform="matrix(1.663065,0,0,1.372935,-12.825539,-13.621001)"/>
<path style=" stroke:none;fill-rule:nonzero;fill:rgb(100%,67.843137%,48.627451%);fill-opacity:1;" d="M -12.316406 737.222656 C 49.222656 737.222656 99.109375 696.042969 99.109375 645.238281 C 99.109375 594.4375 49.222656 553.25 -12.316406 553.25 C -73.855469 553.25 -123.742188 594.4375 -123.742188 645.238281 C -123.742188 696.042969 -73.855469 737.222656 -12.316406 737.222656 Z M -12.316406 737.222656 "/>
</g>
</svg>
